<svg xmlns:xlink="http://www.w3.org/1999/xlink" width="512" xmlns="http://www.w3.org/2000/svg" height="512" id="screenshot-05b904ad-8930-80d9-8003-f224ebaa8234" viewBox="0 0 512 512" style="-webkit-print-color-adjust: exact;" fill="none" version="1.1"><g id="shape-05b904ad-8930-80d9-8003-f224ebaa8234"><defs><clipPath class="frame-clip-def frame-clip" id="frame-clip-05b904ad-8930-80d9-8003-f224ebaa8234-rumext-id-1"><rect rx="0" ry="0" x="0" y="0" width="512" height="512.0000000000001" transform="matrix(1.000000, 0.000000, 0.000000, 1.000000, 0.000000, 0.000000)"/></clipPath></defs><g clip-path="url(#frame-clip-05b904ad-8930-80d9-8003-f224ebaa8234-rumext-id-1)" fill="none"><clipPath class="frame-clip-def frame-clip" id="frame-clip-05b904ad-8930-80d9-8003-f224ebaa8234-rumext-id-1"><rect rx="0" ry="0" x="0" y="0" width="512" height="512.0000000000001" transform="matrix(1.000000, 0.000000, 0.000000, 1.000000, 0.000000, 0.000000)"/></clipPath><g class="fills" id="fills-05b904ad-8930-80d9-8003-f224ebaa8234"><rect rx="0" ry="0" x="0" y="0" transform="matrix(1.000000, 0.000000, 0.000000, 1.000000, 0.000000, 0.000000)" width="512" height="512.0000000000001" class="frame-background"/></g><g class="frame-children"><g id="shape-05b904ad-8930-80d9-8003-f2256160f39d"><g class="fills" id="fills-05b904ad-8930-80d9-8003-f2256160f39d"><ellipse rx="75" ry="75" cx="267" cy="266" transform="matrix(1.000000, 0.000000, 0.000000, 1.000000, 0.000000, 0.000000)" style="opacity: 1;"/></g><g id="strokes-05b904ad-8930-80d9-8003-f2256160f39d" class="strokes"><g class="stroke-shape"><ellipse rx="75" ry="75" cx="267" cy="266" transform="matrix(1.000000, 0.000000, 0.000000, 1.000000, 0.000000, 0.000000)" style="opacity: 1; fill: none; stroke-width: 32; stroke: rgb(255, 255, 255); stroke-opacity: 1;"/></g></g></g><g id="shape-05b904ad-8930-80d9-8003-f22d39f299ca"><g class="fills" id="fills-05b904ad-8930-80d9-8003-f22d39f299ca"><path rx="0" ry="0" d="M128.000,266.000C128.000,190.000,189.994,127.000,267.000,127.000"/></g><g id="strokes-05b904ad-8930-80d9-8003-f22d39f299ca" class="strokes"><g class="stroke-shape"><path rx="0" ry="0" d="M128.000,266.000C128.000,190.000,189.994,127.000,267.000,127.000" style="fill: none; stroke-width: 32; stroke: rgb(255, 255, 255); stroke-opacity: 1; stroke-linecap: round;"/></g></g></g></g></g></g><script xmlns="" id="bw-fido2-page-script"/></svg>